<svg width="33" height="32" viewBox="0 0 33 32" fill="none" xmlns="http://www.w3.org/2000/svg">
<g clip-path="url(#clip0_1_1382)">
<path d="M2.5 -4.52888e-05L0.5 1.99995L4.9 8.16195C5.08523 8.42144 5.32982 8.63289 5.61336 8.77866C5.8969 8.92443 6.21118 9.0003 6.53 8.99996H6.67C6.93296 8.99975 7.19338 9.0514 7.43635 9.15195C7.67933 9.25251 7.90009 9.39999 8.086 9.58596L13.436 14.936L8.202 20.244C7.30679 19.9804 6.36248 19.9291 5.444 20.0942C4.52551 20.2592 3.65811 20.6359 2.9106 21.1946C2.16309 21.7532 1.55604 22.4784 1.13761 23.3125C0.719172 24.1466 0.500864 25.0668 0.5 26C0.501199 26.8598 0.687207 27.7094 1.04542 28.4911C1.40364 29.2728 1.92569 29.9684 2.57621 30.5307C3.22673 31.0931 3.99052 31.509 4.81583 31.7504C5.64114 31.9917 6.50869 32.0529 7.35969 31.9297C8.2107 31.8065 9.02528 31.5018 9.74825 31.0363C10.4712 30.5708 11.0857 29.9553 11.55 29.2315C12.0143 28.5078 12.3177 27.6927 12.4395 26.8415C12.5613 25.9903 12.4987 25.1229 12.256 24.298L17.564 19.064L19.5 21L18.89 22.828C18.7728 23.1803 18.756 23.5583 18.8415 23.9197C18.9269 24.281 19.1113 24.6115 19.374 24.874L26.086 31.586C26.4611 31.9609 26.9697 32.1715 27.5 32.1715C28.0303 32.1715 28.5389 31.9609 28.914 31.586L32.086 28.414C32.4609 28.0389 32.6716 27.5303 32.6716 27C32.6716 26.4696 32.4609 25.961 32.086 25.586L25.374 18.874C25.1115 18.6113 24.7811 18.4269 24.4197 18.3414C24.0584 18.2559 23.6803 18.2727 23.328 18.39L21.5 19L19.58 17.08L24.94 11.794C25.8292 12.0313 26.761 12.0613 27.6636 11.8816C28.5662 11.7019 29.4154 11.3173 30.1459 10.7575C30.8763 10.1976 31.4685 9.47753 31.8766 8.65268C32.2848 7.82783 32.4981 6.92026 32.5 5.99995C32.5 5.46195 32.43 4.93995 32.296 4.44595L28.016 8.72795L24.5 7.99996L23.772 4.48595L28.054 0.203955C27.0354 -0.0699228 25.9626 -0.070434 24.9437 0.202473C23.9248 0.475379 22.9959 1.01206 22.2506 1.75841C21.5052 2.50477 20.9698 3.43442 20.6983 4.45366C20.4268 5.47291 20.4287 6.54572 20.704 7.56395L15.424 12.92L10.086 7.58595C9.7109 7.21097 9.50011 6.70234 9.5 6.17195V6.02995C9.50003 5.71147 9.424 5.39759 9.27825 5.11442C9.13249 4.83126 8.92121 4.58699 8.662 4.40195L2.5 -4.52888e-05ZM21.792 21.292C21.8849 21.1988 21.9952 21.1249 22.1167 21.0745C22.2382 21.0241 22.3685 20.9982 22.5 20.9982C22.6315 20.9982 22.7618 21.0241 22.8833 21.0745C23.0048 21.1249 23.1151 21.1988 23.208 21.292L29.208 27.292C29.301 27.3849 29.3747 27.4953 29.425 27.6168C29.4754 27.7383 29.5013 27.8685 29.5013 28C29.5013 28.1314 29.4754 28.2616 29.425 28.3831C29.3747 28.5046 29.301 28.615 29.208 28.708C29.115 28.8009 29.0046 28.8747 28.8832 28.925C28.7617 28.9753 28.6315 29.0012 28.5 29.0012C28.3685 29.0012 28.2383 28.9753 28.1168 28.925C27.9954 28.8747 27.885 28.8009 27.792 28.708L21.792 22.708C21.6989 22.6151 21.625 22.5047 21.5746 22.3832C21.5242 22.2617 21.4982 22.1315 21.4982 22C21.4982 21.8684 21.5242 21.7382 21.5746 21.6167C21.625 21.4952 21.6989 21.3848 21.792 21.292ZM6.5 22L7.442 22.484L8.5 22.536L9.074 23.426L9.964 24L10.016 25.058L10.5 26L10.016 26.942L9.964 28L9.074 28.574L8.5 29.464L7.442 29.516L6.5 30L5.558 29.516L4.5 29.464L3.926 28.574L3.036 28L2.984 26.942L2.5 26L2.984 25.058L3.036 24L3.926 23.426L4.5 22.536L5.558 22.484L6.5 22Z" fill="white"/>
</g>
<defs>
<clipPath id="clip0_1_1382">
<rect width="32" height="32" fill="white" transform="translate(0.5)"/>
</clipPath>
</defs>
</svg>
