<svg width="33" height="32" viewBox="0 0 33 32" fill="none" xmlns="http://www.w3.org/2000/svg">
<path d="M16.5001 2.41406C17.0304 2.41406 17.539 2.62469 17.9141 2.99964L22.5001 7.58564V4.99964C22.5001 4.73442 22.6054 4.48007 22.793 4.29253C22.9805 4.10499 23.2349 3.99964 23.5001 3.99964H25.5001C25.7653 3.99964 26.0196 4.10499 26.2072 4.29253C26.3947 4.48007 26.5001 4.73442 26.5001 4.99964V11.5856L31.2081 16.2916C31.3956 16.4794 31.5008 16.734 31.5006 16.9993C31.5004 17.2647 31.3948 17.5191 31.2071 17.7066C31.0193 17.8941 30.7647 17.9994 30.4994 17.9992C30.234 17.999 29.9796 17.8934 29.7921 17.7056L16.5001 4.41364L3.20807 17.7056C3.02056 17.8934 2.76614 17.999 2.50078 17.9992C2.23541 17.9994 1.98084 17.8941 1.79307 17.7066C1.60529 17.5191 1.4997 17.2647 1.49951 16.9993C1.49932 16.734 1.60456 16.4794 1.79207 16.2916L15.0861 2.99964C15.4611 2.62469 15.9697 2.41406 16.5001 2.41406Z" fill="white"/>
<path fill-rule="evenodd" clip-rule="evenodd" d="M28.5001 18.5859L16.5001 6.58594L4.50006 18.5859V26.9999C4.50006 27.7956 4.81613 28.5586 5.37874 29.1213C5.94135 29.6839 6.70441 29.9999 7.50006 29.9999H25.5001C26.2957 29.9999 27.0588 29.6839 27.6214 29.1213C28.184 28.5586 28.5001 27.7956 28.5001 26.9999V18.5859ZM16.5001 16.9639C19.8281 13.6179 28.1501 19.4719 16.5001 26.9999C4.85006 19.4719 13.1721 13.6179 16.5001 16.9639Z" fill="white"/>
</svg>
