<svg width="32" height="32" viewBox="0 0 32 32" fill="none" xmlns="http://www.w3.org/2000/svg">
<path fill-rule="evenodd" clip-rule="evenodd" d="M14.42 1.6C15.38 0.59 16 0 16 0C16.218 0.726 16.468 1.416 16.742 2.076C18.366 5.968 20.888 8.776 23.136 11.276C25.756 14.192 28 16.69 28 20C28 23.1826 26.7357 26.2348 24.4853 28.4853C22.2348 30.7357 19.1826 32 16 32C12.8174 32 9.76515 30.7357 7.51472 28.4853C5.26428 26.2348 4 23.1826 4 20C4 13.336 11.16 5.034 14.42 1.6ZM15.246 3.642C13.9616 5.03187 12.741 6.47936 11.588 7.98C10.136 9.88 8.716 11.996 7.668 14.12C6.608 16.266 6 18.276 6 20C6 20 11 23 16 21C21 19 26 20 26 20C26 17.598 24.408 15.686 21.638 12.6L21.578 12.536C19.5 10.22 17 7.442 15.246 3.642Z" fill="white"/>
<path fill-rule="evenodd" clip-rule="evenodd" d="M9.106 15.552C10.746 12.27 12.54 10.046 13.292 9.292L14.708 10.708C14.128 11.288 12.452 13.33 10.894 16.448L9.106 15.552Z" fill="white"/>
</svg>
