<svg width="66" height="66" viewBox="0 0 66 66" fill="none" xmlns="http://www.w3.org/2000/svg">
<path d="M33 0C14.7746 0 0 14.7746 0 33C0 44.1646 5.54436 54.0343 14.0299 60.0059C14.3798 57.4142 15.8173 52.6319 19.0169 47.5876C16.5812 42.2773 12.9081 36.6667 7.50898 31.8144C10.7785 33.8468 16.6325 38.4517 21.1822 44.5079C23.1204 42.0135 25.518 39.5501 28.4551 37.3473C25.8586 40.0456 23.8756 43.1067 22.3781 46.1804C24.094 48.708 25.5444 51.4524 26.479 54.3413C27.0747 50.2832 29.2823 42.631 33.9725 33.8038C29.0009 26.8934 22.148 19.7464 12.8443 13.2395C18.3414 16.191 27.4382 22.4197 35.5443 30.9675C39.011 24.9638 43.611 18.5554 49.5988 12.4491C46.2675 16.1923 41.2779 23.3633 37.146 32.7021C38.6093 34.3306 40.0288 36.0353 41.3758 37.8104C45.2523 31.1048 50.9823 24.1919 59.2814 17.982C54.7301 21.7653 47.6976 29.7524 43.1904 40.3106C46.3079 44.8095 48.9129 49.7132 50.5868 54.9341C51.509 51.5748 55.2108 42.485 62.6407 33C55.3689 46.279 53.4192 55.8514 53.3533 58.9776C61.0531 52.9364 66 43.5459 66 33C66 14.7746 51.2254 0 33 0Z" fill="white"/>
<path d="M23.3174 64.5567C21.536 64.0108 19.8187 63.3181 18.1796 62.4929C18.2132 59.9976 18.7887 55.6839 20.415 50.9442C22.5349 56.5866 23.2861 61.5927 23.3174 64.5567Z" fill="white"/>
<path d="M33 66C31.9335 66 30.8789 65.9494 29.8383 65.8505C29.7692 55.0076 32.27 44.8607 35.6625 36.2504C36.3558 37.2136 38.0192 39.7315 39.1258 42.097C34.4289 52.0174 33.6018 61.0205 34.1856 65.9791C33.7921 65.993 33.3969 66 33 66Z" fill="white"/>
<path d="M45.8443 63.407C43.7102 64.3096 41.4614 64.9941 39.1258 65.4325C38.3968 58.4892 39.2925 51.936 41.1068 46.0031C44.4501 53.2962 45.7341 59.5523 45.8443 63.407Z" fill="white"/>
</svg>
