<svg width="100" height="100" viewBox="0 0 100 100" fill="none" xmlns="http://www.w3.org/2000/svg">
<path d="M15.3792 26.2167C21.225 19.8792 30.0708 16.6667 41.6667 16.6667H45.8333V28.4125L42.4833 29.0833C36.775 30.225 32.8042 32.4708 30.6792 35.7667C29.5704 37.5422 28.9415 39.5752 28.8542 41.6667H41.6667C42.7717 41.6667 43.8315 42.1057 44.6129 42.8871C45.3943 43.6685 45.8333 44.7283 45.8333 45.8333V75C45.8333 79.5958 42.0958 83.3333 37.5 83.3333H12.5C11.3949 83.3333 10.3351 82.8944 9.55372 82.113C8.77231 81.3316 8.33333 80.2717 8.33333 79.1667V58.3333L8.34583 46.1708C8.30833 45.7083 7.51666 34.75 15.3792 26.2167ZM83.3333 83.3333H58.3333C57.2283 83.3333 56.1684 82.8944 55.387 82.113C54.6056 81.3316 54.1667 80.2717 54.1667 79.1667V58.3333L54.1792 46.1708C54.1417 45.7083 53.35 34.75 61.2125 26.2167C67.0583 19.8792 75.9042 16.6667 87.5 16.6667H91.6667V28.4125L88.3167 29.0833C82.6083 30.225 78.6375 32.4708 76.5125 35.7667C75.4037 37.5422 74.7749 39.5752 74.6875 41.6667H87.5C88.6051 41.6667 89.6649 42.1057 90.4463 42.8871C91.2277 43.6685 91.6667 44.7283 91.6667 45.8333V75C91.6667 79.5958 87.9292 83.3333 83.3333 83.3333Z" fill="white"/>
</svg>
